<svg width="225" height="225" viewBox="0 0 225 225" fill="none" xmlns="http://www.w3.org/2000/svg">
<path d="M162.5 84.375C162.5 45.5405 126.125 14.0625 81.25 14.0625C36.375 14.0625 0 45.5405 0 84.375C0 99.4351 5.51953 113.357 14.832 124.796C9.61328 138.085 0.984375 148.605 0.859375 148.755C0.438761 149.253 0.157297 149.879 0.0498246 150.556C-0.0576474 151.232 0.0135927 151.93 0.254725 152.561C0.495858 153.192 0.896296 153.73 1.40647 154.108C1.91664 154.486 2.51414 154.688 3.125 154.688C17.4141 154.688 29.2695 149.304 37.7852 143.71C50.3633 150.627 65.2422 154.688 81.25 154.688C126.125 154.688 162.5 123.209 162.5 84.375ZM75 126.562V119.404C70.5898 119.149 66.3008 117.417 62.7461 114.416C61.2227 113.128 61.1445 110.562 62.5234 109.081L67.1133 104.155C68.1953 102.995 69.8047 102.942 71.0703 103.834C72.582 104.897 74.2969 105.469 76.0781 105.469H87.0586C89.5977 105.469 91.668 102.867 91.668 99.6724C91.668 97.0576 90.2578 94.7549 88.2422 94.0781L70.6641 88.1455C63.4023 85.6934 58.3281 77.8535 58.3281 69.0776C58.3281 58.3022 65.7695 49.5483 74.9961 49.2715V42.1875C74.9961 40.2451 76.3945 38.6719 78.1211 38.6719H84.3711C86.0977 38.6719 87.4961 40.2451 87.4961 42.1875V49.3462C91.9063 49.6011 96.1953 51.3281 99.75 54.334C101.273 55.6216 101.352 58.188 99.9727 59.6689L95.3828 64.5952C94.3008 65.7554 92.6914 65.8081 91.4258 64.916C89.9141 63.8481 88.1992 63.2812 86.418 63.2812H75.4375C72.8984 63.2812 70.8281 65.8828 70.8281 69.0776C70.8281 71.6924 72.2383 73.9951 74.2539 74.6719L91.832 80.6045C99.0937 83.0566 104.168 90.8965 104.168 99.6724C104.168 110.452 96.7266 119.202 87.5 119.479V126.562C87.5 128.505 86.1016 130.078 84.375 130.078H78.125C76.3984 130.078 75 128.505 75 126.562ZM210.16 181.05C219.48 169.611 225 155.685 225 140.625C225 111.208 204.105 86.0449 174.48 75.5552C174.816 78.4556 175 81.3955 175 84.375C175 130.9 132.945 168.75 81.25 168.75C77.0391 168.75 72.9219 168.412 68.8555 167.924C81.1719 193.197 110.066 210.938 143.75 210.938C159.758 210.938 174.637 206.877 187.215 199.96C195.73 205.554 207.586 210.938 221.875 210.938C223.125 210.938 224.254 210.098 224.742 208.811C225.238 207.519 225 206.024 224.137 205C224.016 204.855 215.379 194.348 210.16 181.05V181.05Z" fill="black"/>
</svg>
