<svg width="225" height="225" viewBox="0 0 225 225" fill="none" xmlns="http://www.w3.org/2000/svg">
<path d="M112.5 0C175.179 0 225 15.4688 225 35.1562V182.812C225 190.591 217.818 196.875 208.929 196.875V210.938C208.929 218.716 201.747 225 192.857 225H176.786C167.896 225 160.714 218.716 160.714 210.938V196.875H64.2857V210.938C64.2857 218.716 57.1038 225 48.2143 225H32.1429C23.2684 225 16.0714 218.716 16.0714 210.938V196.875C7.19699 196.875 0 190.591 0 182.812V35.1562C0 15.4688 49.8164 0 112.5 0ZM32.1429 112.5C32.1429 120.278 39.3398 126.562 48.2143 126.562H176.786C185.675 126.562 192.857 120.278 192.857 112.5V56.25C192.857 48.4717 185.675 42.1875 176.786 42.1875H48.2143C39.3398 42.1875 32.1429 48.4717 32.1429 56.25V112.5ZM40.1786 175.781C49.053 175.781 56.25 169.497 56.25 161.719C56.25 153.94 49.053 147.656 40.1786 147.656C31.3041 147.656 24.1071 153.94 24.1071 161.719C24.1071 169.497 31.3041 175.781 40.1786 175.781ZM184.821 175.781C193.711 175.781 200.893 169.497 200.893 161.719C200.893 153.94 193.711 147.656 184.821 147.656C175.932 147.656 168.75 153.94 168.75 161.719C168.75 169.497 175.932 175.781 184.821 175.781Z" fill="black"/>
</svg>
