<svg width="225" height="225" viewBox="0 0 225 225" fill="none" xmlns="http://www.w3.org/2000/svg">
<path d="M178.125 28.125H46.875C36.5625 28.125 28.125 36.5625 28.125 46.875V178.125C28.125 188.438 36.5625 196.875 46.875 196.875H178.125C188.438 196.875 196.875 188.438 196.875 178.125V46.875C196.875 36.5625 188.438 28.125 178.125 28.125ZM70.3125 168.75C62.5313 168.75 56.25 162.469 56.25 154.688C56.25 146.906 62.5313 140.625 70.3125 140.625C78.0937 140.625 84.375 146.906 84.375 154.688C84.375 162.469 78.0937 168.75 70.3125 168.75ZM70.3125 84.375C62.5313 84.375 56.25 78.0937 56.25 70.3125C56.25 62.5313 62.5313 56.25 70.3125 56.25C78.0937 56.25 84.375 62.5313 84.375 70.3125C84.375 78.0937 78.0937 84.375 70.3125 84.375ZM112.5 126.562C104.719 126.562 98.4375 120.281 98.4375 112.5C98.4375 104.719 104.719 98.4375 112.5 98.4375C120.281 98.4375 126.562 104.719 126.562 112.5C126.562 120.281 120.281 126.562 112.5 126.562ZM154.688 168.75C146.906 168.75 140.625 162.469 140.625 154.688C140.625 146.906 146.906 140.625 154.688 140.625C162.469 140.625 168.75 146.906 168.75 154.688C168.75 162.469 162.469 168.75 154.688 168.75ZM154.688 84.375C146.906 84.375 140.625 78.0937 140.625 70.3125C140.625 62.5313 146.906 56.25 154.688 56.25C162.469 56.25 168.75 62.5313 168.75 70.3125C168.75 78.0937 162.469 84.375 154.688 84.375Z" fill="black"/>
</svg>
