<svg width="225" height="225" viewBox="0 0 225 225" fill="none" xmlns="http://www.w3.org/2000/svg">
<path d="M178.125 196.875C172.031 196.875 166.562 195.119 161.719 191.606C156.875 188.087 153.516 183.594 151.641 178.125H103.125C92.8125 178.125 83.9844 174.453 76.6406 167.109C69.2969 159.766 65.625 150.938 65.625 140.625C65.625 130.312 69.2969 121.484 76.6406 114.141C83.9844 106.797 92.8125 103.125 103.125 103.125H121.875C127.031 103.125 131.447 101.287 135.122 97.6125C138.791 93.9437 140.625 89.5313 140.625 84.375C140.625 79.2187 138.791 74.8031 135.122 71.1281C131.447 67.4594 127.031 65.625 121.875 65.625H73.3594C71.3281 71.0937 67.9312 75.5875 63.1687 79.1062C58.4 82.6187 52.9687 84.375 46.875 84.375C39.0625 84.375 32.4219 81.6406 26.9531 76.1719C21.4844 70.7031 18.75 64.0625 18.75 56.25C18.75 48.4375 21.4844 41.7969 26.9531 36.3281C32.4219 30.8594 39.0625 28.125 46.875 28.125C52.9687 28.125 58.4 29.8813 63.1687 33.3938C67.9312 36.9125 71.3281 41.4063 73.3594 46.875H121.875C132.188 46.875 141.016 50.5469 148.359 57.8906C155.703 65.2344 159.375 74.0625 159.375 84.375C159.375 94.6875 155.703 103.516 148.359 110.859C141.016 118.203 132.188 121.875 121.875 121.875H103.125C97.9687 121.875 93.5563 123.709 89.8875 127.378C86.2125 131.053 84.375 135.469 84.375 140.625C84.375 145.781 86.2125 150.197 89.8875 153.872C93.5563 157.541 97.9687 159.375 103.125 159.375H151.641C153.672 153.906 157.072 149.413 161.841 145.894C166.603 142.381 172.031 140.625 178.125 140.625C185.937 140.625 192.578 143.359 198.047 148.828C203.516 154.297 206.25 160.938 206.25 168.75C206.25 176.562 203.516 183.203 198.047 188.672C192.578 194.141 185.937 196.875 178.125 196.875ZM46.875 65.625C49.5312 65.625 51.7594 64.7281 53.5594 62.9344C55.3531 61.1344 56.25 58.9062 56.25 56.25C56.25 53.5938 55.3531 51.3656 53.5594 49.5656C51.7594 47.7719 49.5312 46.875 46.875 46.875C44.2188 46.875 41.9906 47.7719 40.1906 49.5656C38.3969 51.3656 37.5 53.5938 37.5 56.25C37.5 58.9062 38.3969 61.1344 40.1906 62.9344C41.9906 64.7281 44.2188 65.625 46.875 65.625Z" fill="black"/>
</svg>
