<svg width="225" height="225" viewBox="0 0 225 225" fill="none" xmlns="http://www.w3.org/2000/svg">
<path d="M93.8423 0C79.8836 0 70.0442 9.88269 70.0442 23.7981C70.0442 39.1154 82.1423 49.076 93.8423 58.6817C97.6673 61.8231 101.406 64.9817 104.928 68.4173H43.2692C31.8808 68.4173 22.4221 75.7817 18.926 85.9933C18.926 85.9933 20.6913 103.033 47.5962 103.033C72.6058 103.033 73.5317 90.3115 73.5577 89.7837C73.6157 88.6795 74.0984 87.6405 74.9048 86.8841C75.7113 86.1276 76.779 85.7123 77.8846 85.725C79.0205 85.7618 80.0998 86.2295 80.9035 87.0331C81.7071 87.8367 82.1748 88.916 82.2115 90.0519C82.2462 90.4933 83.4663 103.033 112.5 103.033C141.534 103.033 142.745 90.3115 142.788 89.7837C142.883 88.6452 143.415 87.5875 144.271 86.8312C145.127 86.075 146.242 85.6786 147.384 85.725C148.492 85.7723 149.537 86.2517 150.296 87.0605C151.054 87.8694 151.466 88.9432 151.442 90.0519C151.46 90.5106 152.221 103.033 177.404 103.033C205.122 103.033 206.074 85.9933 206.074 85.9933C202.578 75.7904 193.102 68.4173 181.731 68.4173H120.072C123.625 65.0133 127.323 61.7651 131.158 58.6817C142.849 49.076 154.956 39.1067 154.956 23.7981C154.956 9.88269 145.125 0 131.158 0C123.11 0 116.299 5.76346 112.5 9.73558C108.718 5.75481 101.882 0 93.8423 0V0ZM78.1442 100.601C73.9211 106.105 65.2673 111.687 47.5962 111.687C30.2452 111.687 21.626 106.278 17.3077 100.869V137.648H207.692V100.869C203.374 106.235 194.729 111.687 177.404 111.687C159.663 111.687 151.062 106.087 146.847 100.601C142.053 106.079 132.274 111.687 112.5 111.687C92.6567 111.687 82.9212 106.105 78.1529 100.601H78.1442ZM25.9615 146.302C14.5731 146.302 5.11442 153.666 1.61827 163.878C1.62692 163.878 3.38365 180.917 30.2885 180.917C55.2981 180.917 64.8779 168.196 64.9038 167.668C64.9618 166.564 65.4446 165.525 66.251 164.769C67.0574 164.012 68.1251 163.597 69.2308 163.61C70.3667 163.646 71.446 164.114 72.2496 164.918C73.0532 165.721 73.5209 166.801 73.5577 167.937C73.5923 168.378 83.4663 180.917 112.5 180.917C141.534 180.917 151.399 168.196 151.442 167.668C151.537 166.53 152.068 165.472 152.925 164.716C153.781 163.96 154.896 163.563 156.037 163.61C157.145 163.657 158.191 164.136 158.949 164.945C159.708 165.754 160.12 166.828 160.096 167.937C160.113 168.395 169.529 180.917 194.712 180.917C222.43 180.917 223.382 163.878 223.382 163.878C219.886 153.675 210.41 146.302 199.038 146.302H25.9615ZM69.499 178.486C65.2673 183.989 47.9596 189.571 30.2885 189.571C12.9375 189.571 4.31827 184.162 0 178.754V206.879C0 221.21 11.6308 224.187 25.9615 224.187H199.038C213.369 224.187 225 221.21 225 206.879V178.754C220.682 184.119 212.037 189.571 194.712 189.571C176.971 189.571 159.715 183.972 155.501 178.486C150.707 183.963 132.274 189.571 112.5 189.571C92.6567 189.571 74.2673 183.989 69.499 178.486Z" fill="black"/>
</svg>
