<svg width="396" height="109" viewBox="0 0 396 109" fill="none" xmlns="http://www.w3.org/2000/svg">
<path d="M1.98877 1.8584C60.7393 2.97215 119.416 3.51636 178.093 6.8767C203.63 8.3392 229.766 9.87582 255.143 13.2847C275.613 16.0344 298.271 21.5591 313.432 36.6005C327.761 50.8151 334.993 80.6065 312.583 90.5665C301.397 95.5381 286.694 93.917 274.984 92.651C255.109 90.5024 218.212 88.1668 205.886 69.3353C185.366 37.9854 271.746 26.6331 285.021 25.3286C310.129 22.8613 336.195 23.9695 359.601 34.1299C372.496 39.7278 391.622 49.1421 393.648 65.0118C395.563 80.0123 388.321 92.974 388.321 107.474" stroke="black" stroke-width="3" stroke-linecap="round"/>
</svg>
