<svg width="382" height="152" viewBox="0 0 382 152" fill="none" xmlns="http://www.w3.org/2000/svg">
<path d="M379.9 18.1482C363.837 26.0224 349.028 28.0613 331.195 28.9289C288.123 31.0242 244.712 30.5399 202.019 37.3031C168.288 42.6466 135.752 47.6025 101.528 47.6025C87.7069 47.6025 4.16791 49.99 11.6246 21.2284C14.6223 9.66596 32.2286 6.26103 41.849 4.67234C63.0905 1.16457 87.2266 0.941229 108.458 4.47983C120.742 6.52712 139.03 10.9832 142.822 24.9824C146.777 39.5879 127.437 55.6264 118.469 64.0623C89.786 91.0411 54.1473 108.9 21.6352 130.575C11.81 137.125 7.92026 140.279 2.19153 149.826" stroke="black" stroke-width="3" stroke-linecap="round"/>
</svg>
