<svg width="442" height="117" viewBox="0 0 442 117" fill="none" xmlns="http://www.w3.org/2000/svg">
<path d="M2.30847 39.2848C32.3951 43.0986 62.4988 46.9006 92.5492 50.9875C123.775 55.2342 155.77 53.328 187.211 53.328C225.18 53.328 263.148 53.328 301.117 53.328C342.071 53.328 389.077 59.5533 429.066 48.647C439.461 45.812 443.49 39.8208 435.568 30.7028C419.89 12.6581 398.505 6.04859 375.624 3.13652C343.704 -0.92598 306.782 6.50295 298.256 43.4458C294.452 59.9303 300.707 77.9943 297.086 94.2874C294.126 107.608 291.494 117.187 279.012 108.201C275.871 105.939 274.036 99.5055 273.811 95.4577C273.373 87.5726 281.236 104.835 283.303 107.16C297.068 122.646 302.893 110.975 318.281 104.82" stroke="black" stroke-width="3" stroke-linecap="round"/>
</svg>
