<svg width="49" height="25" viewBox="0 0 49 25" fill="none" xmlns="http://www.w3.org/2000/svg">
<path d="M39.2072 12.5C39.2072 11.55 38.5163 10.765 37.622 10.6425L37.3721 10.625L6.27143 10.625L11.7007 5.075C12.0119 4.75753 12.2011 4.33665 12.2339 3.88887C12.2668 3.4411 12.141 2.99618 11.8796 2.635L11.7007 2.425C11.049 1.7575 10.0298 1.7 9.31192 2.2425L9.10611 2.425L0.538353 11.175C0.227154 11.4925 0.0379448 11.9134 0.00512314 12.3611C-0.0276985 12.8089 0.0980453 13.2538 0.359501 13.615L0.538353 13.825L9.10611 22.575C9.43293 22.9132 9.8735 23.1121 10.3386 23.1313C10.8037 23.1505 11.2586 22.9886 11.6111 22.6785C11.9637 22.3683 12.1875 21.933 12.2374 21.4608C12.2872 20.9886 12.1593 20.5146 11.8796 20.135L11.7007 19.925L6.27143 14.375L37.3721 14.375C37.8595 14.375 38.3269 14.1775 38.6715 13.8258C39.0161 13.4742 39.2097 12.9973 39.2097 12.5H39.2072ZM49 12.5C49 5.5975 43.5193 0 36.7596 0C34.2648 0.00120163 31.8299 0.779936 29.7808 2.23198C27.7316 3.68402 26.166 5.74009 25.2935 8.125H29.3385C30.2838 6.46126 31.7402 5.16178 33.4822 4.42763C35.2242 3.69347 37.1547 3.56555 38.9751 4.06367C40.7955 4.56178 42.4043 5.65816 43.5526 7.18317C44.7009 8.70819 45.3247 10.5768 45.3274 12.5C45.3247 14.4232 44.7009 16.2918 43.5526 17.8168C42.4043 19.3418 40.7955 20.4382 38.9751 20.9363C37.1547 21.4344 35.2242 21.3065 33.4822 20.5724C31.7402 19.8382 30.2838 18.5387 29.3385 16.875L25.291 16.875C26.1637 19.2603 27.7297 21.3167 29.7793 22.7687C31.829 24.2208 34.2644 24.9993 36.7596 25C38.3677 24.9993 39.9599 24.6755 41.4453 24.047C42.9307 23.4184 44.2803 22.4975 45.4169 21.3368C46.5535 20.176 47.455 18.7982 48.0698 17.282C48.6845 15.7658 49.0006 14.1409 49 12.5Z" fill="black"/>
</svg>
