<svg width="573" height="126" viewBox="0 0 573 126" fill="none" xmlns="http://www.w3.org/2000/svg">
<path d="M2.10986 99.4167C16.853 88.5295 24.6943 87.1532 31.9591 71.8164C36.1336 63.0036 38.1734 52.9463 39.0126 43.296C39.8456 33.716 34.5537 30.231 33.4925 40.8427C31.4956 60.8115 33.5693 81.8226 33.3903 101.87C33.3426 107.209 33.8819 119.786 28.7902 123.746C25.2026 126.536 28.4744 106.264 28.7902 105.141C30.0245 100.753 32.1976 93.2893 36.6614 99.8256C42.0211 107.674 47.8009 111.178 57.7195 110.048C71.6822 108.457 89.4507 92.9583 81.6398 77.3365C78.636 71.329 79.3908 82.1963 79.3908 83.7766C79.3908 89.9745 77.2157 102.782 85.7287 104.528C96.0882 106.653 110.671 94.4498 110.671 83.7766C110.671 81.1133 109.303 80.2742 110.569 74.5764C112.247 67.025 108.674 73.6813 108.831 79.1765C108.894 81.361 111.019 104.119 112.511 104.119C115.306 104.119 112.305 98.5139 112.613 95.7367C113.243 90.0746 115.701 85.6984 118.849 81.1187C124.964 72.2237 129.851 71.0663 134.592 81.7321C135.127 82.9362 143.193 73.4445 145.632 72.2253C153.253 68.4148 152.664 79.6881 153.094 83.7766C154.636 98.4245 172.606 95.9572 182.023 91.6478C185.052 90.2615 193.042 84.8864 193.472 81.0165C193.889 77.2705 192.609 78.4729 193.881 81.0165C198.055 89.3645 219.525 89.0187 223.628 80.8121C230.367 67.3355 217.706 51.1265 203.081 55.6651C198.555 57.0698 189.082 66.2732 188.054 70.8964C187.095 75.2156 189.323 85.3079 194.392 86.4344C202.847 88.3132 216.023 87.2798 223.73 83.7766C230.836 80.5467 238.331 80.0367 244.993 75.0875C252.969 69.1628 262.565 62.6163 273.002 62.6163C284.804 62.6163 297.028 70.3004 307.554 74.5764C333.798 85.238 360.086 90.0063 388.515 88.1722C425.851 85.7634 464.049 68.8512 495.849 50.145C521.21 35.2268 549.687 22.8852 570.677 1.89551" stroke="black" stroke-width="3" stroke-linecap="round"/>
</svg>
