<svg width="24" height="24" viewBox="0 0 24 24" fill="none" xmlns="http://www.w3.org/2000/svg">
<g clip-path="url(#clip0_235_2010)">
<path d="M11.9997 4.48047C11.2442 4.48047 10.5056 4.70451 9.87741 5.12425C9.24922 5.544 8.7596 6.1406 8.47047 6.83862C8.18134 7.53663 8.10569 8.30471 8.25309 9.04571C8.40049 9.78672 8.76431 10.4674 9.29854 11.0016C9.83278 11.5359 10.5134 11.8997 11.2544 12.0471C11.9955 12.1945 12.7635 12.1188 13.4615 11.8297C14.1596 11.5406 14.7562 11.0509 15.1759 10.4227C15.5957 9.79455 15.8197 9.05599 15.8197 8.30047C15.8197 7.28734 15.4172 6.31571 14.7008 5.59932C13.9844 4.88293 13.0128 4.48047 11.9997 4.48047V4.48047ZM11.9997 10.7871C11.5079 10.7871 11.0271 10.6413 10.6182 10.3681C10.2092 10.0948 9.89052 9.70645 9.70231 9.25208C9.5141 8.7977 9.46485 8.29771 9.5608 7.81534C9.65675 7.33298 9.89358 6.8899 10.2414 6.54213C10.5891 6.19436 11.0322 5.95753 11.5146 5.86158C11.9969 5.76563 12.4969 5.81488 12.9513 6.00309C13.4057 6.1913 13.794 6.51002 14.0673 6.91895C14.3405 7.32788 14.4864 7.80865 14.4864 8.30047C14.4846 8.95882 14.2218 9.5896 13.7557 10.0545C13.2895 10.5194 12.658 10.7805 11.9997 10.7805V10.7871Z" fill="white"/>
<path d="M11.9998 1.33301C9.92328 1.33474 7.93181 2.15813 6.46036 3.62334C4.9889 5.08854 4.15705 7.0765 4.14648 9.15301C4.14648 12.2663 5.89315 14.873 7.17315 16.773L7.40648 17.1197C8.68 18.9654 10.0462 20.7455 11.4998 22.453L12.0065 23.0463L12.5132 22.453C13.9666 20.7453 15.3328 18.9653 16.6065 17.1197L16.8398 16.7663C18.1132 14.8663 19.8598 12.2663 19.8598 9.15301C19.8492 7.07535 19.0165 5.08638 17.5436 3.62099C16.0707 2.15559 14.0775 1.33298 11.9998 1.33301ZM15.7265 15.9997L15.4865 16.353C14.3398 18.073 12.8198 19.9997 11.9998 20.953C11.2132 19.9997 9.65982 18.073 8.51315 16.353L8.27982 15.9997C7.09982 14.2397 5.47982 11.833 5.47982 9.12634C5.47982 8.27012 5.64846 7.42229 5.97612 6.63125C6.30378 5.8402 6.78404 5.12144 7.38948 4.51601C7.99492 3.91057 8.71368 3.43031 9.50472 3.10265C10.2958 2.77499 11.1436 2.60634 11.9998 2.60634C12.856 2.60634 13.7039 2.77499 14.4949 3.10265C15.286 3.43031 16.0047 3.91057 16.6102 4.51601C17.2156 5.12144 17.6959 5.8402 18.0235 6.63125C18.3512 7.42229 18.5198 8.27012 18.5198 9.12634C18.5198 11.8597 16.9065 14.2663 15.7265 15.9997Z" fill="white"/>
</g>
<defs>
<clipPath id="clip0_235_2010">
<rect width="24" height="24" fill="white"/>
</clipPath>
</defs>
</svg>
