<svg width="49" height="25" viewBox="0 0 49 25" fill="none" xmlns="http://www.w3.org/2000/svg">
<path d="M9.79278 12.5C9.79278 13.45 10.4837 14.235 11.378 14.3575L11.6279 14.375H42.7286L37.2993 19.925C36.9881 20.2425 36.7989 20.6634 36.7661 21.1111C36.7332 21.5589 36.859 22.0038 37.1204 22.365L37.2993 22.575C37.951 23.2425 38.9702 23.3 39.6881 22.7575L39.8939 22.575L48.4616 13.825C48.7728 13.5075 48.9621 13.0866 48.9949 12.6389C49.0277 12.1911 48.902 11.7462 48.6405 11.385L48.4616 11.175L39.8939 2.425C39.5671 2.08678 39.1265 1.88793 38.6614 1.86872C38.1963 1.84951 37.7414 2.01137 37.3889 2.32152C37.0363 2.63168 36.8125 3.06695 36.7626 3.5392C36.7128 4.01144 36.8407 4.48536 37.1204 4.865L37.2993 5.075L42.7286 10.625H11.6279C11.1405 10.625 10.6731 10.8225 10.3285 11.1742C9.98393 11.5258 9.79033 12.0027 9.79033 12.5H9.79278ZM9.80887e-07 12.5C9.80887e-07 19.4025 5.48072 25 12.2404 25C14.7352 24.9988 17.1701 24.2201 19.2192 22.768C21.2684 21.316 22.834 19.2599 23.7065 16.875H19.6615C18.7162 18.5387 17.2598 19.8382 15.5178 20.5724C13.7758 21.3065 11.8453 21.4344 10.0249 20.9363C8.20446 20.4382 6.59566 19.3418 5.44737 17.8168C4.29909 16.2918 3.67533 14.4232 3.6726 12.5C3.67533 10.5768 4.29909 8.70819 5.44737 7.18318C6.59566 5.65816 8.20446 4.56178 10.0249 4.06367C11.8453 3.56555 13.7758 3.69347 15.5178 4.42763C17.2598 5.16178 18.7162 6.46126 19.6615 8.125H23.709C22.8363 5.73969 21.2703 3.68335 19.2207 2.23127C17.171 0.779192 14.7356 0.000693115 12.2404 0C10.6323 0.000656478 9.0401 0.3245 7.55468 0.953039C6.06926 1.58158 4.71971 2.5025 3.58309 3.66324C2.44647 4.82397 1.54503 6.20178 0.930241 7.71799C0.315453 9.23421 -0.000642634 10.8591 9.80887e-07 12.5Z" fill="black"/>
</svg>
